<?xml version="1.0" standalone="no"?>
<!DOCTYPE svg PUBLIC "-//W3C//DTD SVG 20010904//EN"
 "http://www.w3.org/TR/2001/REC-SVG-20010904/DTD/svg10.dtd">
<svg version="1.0" xmlns="http://www.w3.org/2000/svg"
 width="700.000000pt" height="700.000000pt" viewBox="0 0 700.000000 700.000000"
 preserveAspectRatio="xMidYMid meet">
<metadata>
Created by potrace 1.14, written by Peter Selinger 2001-2017
</metadata>
<g transform="translate(0.000000,700.000000) scale(0.100000,-0.100000)"
fill="#000000" stroke="none">
<path d="M1799 6995 c-2 -1 -23 -5 -45 -8 -163 -23 -314 -102 -432 -226 -112
-119 -209 -317 -259 -531 -21 -90 -23 -102 -28 -130 -2 -14 -8 -54 -14 -90 -9
-60 -16 -116 -26 -215 -9 -94 -19 -308 -18 -410 0 -128 6 -183 38 -389 27
-164 29 -175 51 -281 9 -38 17 -77 19 -85 10 -46 68 -271 90 -346 91 -314 218
-617 325 -777 61 -92 144 -176 168 -171 9 2 179 44 377 93 198 48 441 107 540
131 99 23 199 47 222 52 79 19 107 57 152 203 58 190 76 270 106 480 4 22 8
50 10 62 2 12 7 61 10 110 4 48 9 97 12 108 12 52 10 550 -2 675 -55 563 -249
1110 -499 1405 -141 167 -334 297 -492 330 -31 7 -300 16 -305 10z"/>
<path d="M4979 5366 c-2 -2 -26 -6 -54 -9 -27 -3 -80 -17 -118 -31 -202 -76
-382 -238 -520 -466 -32 -52 -62 -102 -67 -110 -6 -8 -13 -22 -16 -30 -4 -8
-19 -42 -34 -75 -52 -114 -58 -131 -98 -250 -60 -176 -129 -458 -148 -604 -2
-19 -6 -46 -8 -60 -27 -166 -27 -770 -1 -910 1 -9 6 -43 9 -76 11 -94 18 -136
43 -275 19 -109 91 -358 119 -412 28 -55 79 -73 394 -143 8 -2 47 -11 85 -20
39 -9 77 -18 85 -20 8 -2 53 -13 100 -25 47 -12 93 -23 103 -25 9 -2 45 -11
80 -20 34 -9 69 -18 77 -20 26 -6 304 -76 320 -80 33 -10 141 117 223 260 83
146 206 458 272 690 10 33 23 80 30 105 43 144 122 521 141 670 3 25 7 56 9
69 26 159 21 527 -9 746 -3 22 -8 65 -11 95 -4 30 -17 109 -30 175 -96 479
-317 759 -660 832 -78 17 -304 30 -316 19z"/>
<path d="M2860 3353 c-79 -30 -510 -161 -735 -223 -52 -15 -197 -57 -284 -84
-47 -14 -86 -26 -88 -26 -2 0 -2 -15 1 -32 3 -18 8 -60 11 -93 27 -263 99
-524 200 -730 90 -182 188 -305 317 -401 377 -277 848 -100 976 366 93 337 6
725 -258 1160 -27 44 -69 95 -74 89 -1 -1 -30 -12 -66 -26z"/>
<path d="M4022 1692 c-92 -136 -193 -342 -241 -490 -26 -81 -35 -114 -56 -222
-24 -118 -24 -288 1 -425 7 -44 43 -143 72 -200 151 -303 466 -428 772 -305
119 47 267 171 359 300 153 215 266 554 306 915 3 33 8 74 10 92 l5 32 -83 25
c-45 13 -129 38 -187 55 -58 17 -181 54 -275 82 -93 28 -177 52 -185 54 -27 5
-313 94 -388 119 l-72 25 -38 -57z"/>
</g>
</svg>
