<?xml version="1.0" standalone="no"?>
<!DOCTYPE svg PUBLIC "-//W3C//DTD SVG 20010904//EN"
 "http://www.w3.org/TR/2001/REC-SVG-20010904/DTD/svg10.dtd">
<svg version="1.0" xmlns="http://www.w3.org/2000/svg"
 width="490.000000pt" height="490.000000pt" viewBox="0 0 490.000000 490.000000"
 preserveAspectRatio="xMidYMid meet">
<metadata>
Created by potrace 1.14, written by Peter Selinger 2001-2017
</metadata>
<g transform="translate(0.000000,490.000000) scale(0.100000,-0.100000)"
fill="#000000" stroke="none">
<path d="M1470 4885 c-157 -25 -227 -42 -360 -92 -306 -114 -571 -313 -771
-580 -224 -297 -338 -643 -337 -1023 1 -236 32 -406 113 -615 82 -211 186
-377 345 -549 105 -113 187 -182 322 -270 88 -57 242 -136 305 -156 21 -7 43
-15 48 -19 6 -3 12 -6 15 -6 3 -1 37 -11 75 -23 157 -47 296 -66 480 -66 283
0 503 50 750 169 99 48 258 146 293 182 7 7 17 13 20 13 4 0 99 -92 211 -204
l204 -204 -23 -37 c-28 -46 -36 -102 -20 -152 10 -30 137 -163 618 -646 l607
-607 45 0 45 0 222 222 c173 173 223 229 223 248 0 20 -127 152 -612 637 -426
425 -624 617 -650 628 -53 21 -97 19 -154 -10 l-49 -25 -203 203 -202 202 41
55 c94 124 173 266 231 415 35 90 77 233 84 290 3 17 7 41 10 55 19 82 24 314
11 455 -65 702 -605 1316 -1302 1480 -184 43 -463 56 -635 30z m435 -357 c11
-3 36 -8 55 -12 19 -3 46 -8 60 -11 68 -13 206 -64 300 -112 152 -77 294 -188
414 -324 54 -61 159 -222 191 -294 49 -108 53 -119 78 -206 42 -144 52 -223
50 -404 -2 -219 -46 -394 -149 -595 -70 -136 -135 -223 -253 -340 -193 -191
-463 -331 -704 -365 -23 -3 -51 -9 -61 -12 -33 -9 -258 -11 -326 -2 -109 15
-132 19 -190 34 -492 128 -876 528 -981 1025 -51 242 -36 494 43 720 168 476
557 804 1062 894 68 13 366 15 411 4z"/>
</g>
</svg>
